<svg aria-hidden="true" style="position: absolute; width: 0; height: 0; overflow: hidden;" version="1.1" xmlns="http://www.w3.org/2000/svg" xmlns:xlink="http://www.w3.org/1999/xlink">
<defs>
<symbol id="icon-happy" viewBox="0 0 32 32">
<path d="M16-0.034c-8.841 0-16.035 7.192-16.035 16.034s7.194 16.034 16.035 16.034 16.035-7.192 16.035-16.034-7.194-16.034-16.035-16.034zM16 30.966c-8.252 0-14.965-6.714-14.965-14.966s6.713-14.966 14.965-14.966 14.965 6.714 14.965 14.966-6.713 14.966-14.965 14.966zM10.5 16.5c1.103 0 2-0.897 2-2s-0.897-2-2-2-2 0.897-2 2 0.897 2 2 2zM10.5 13.5c0.551 0 1 0.448 1 1s-0.449 1-1 1-1-0.448-1-1 0.449-1 1-1zM21.5 16.5c1.103 0 2-0.897 2-2s-0.897-2-2-2-2 0.897-2 2 0.897 2 2 2zM21.5 13.5c0.551 0 1 0.448 1 1s-0.449 1-1 1-1-0.448-1-1 0.449-1 1-1zM22.823 22.075c-1.696 1.837-4.097 2.891-6.588 2.891-2.53 0-4.956-1.081-6.656-2.967-0.198-0.218-0.537-0.237-0.755-0.038-0.219 0.197-0.237 0.535-0.039 0.755 1.903 2.109 4.618 3.318 7.45 3.318 2.788 0 5.476-1.179 7.373-3.234 0.2-0.217 0.187-0.555-0.030-0.755s-0.555-0.188-0.755 0.030z"></path>
</symbol>
<symbol id="icon-sad" viewBox="0 0 32 32">
<path d="M16-0.034c-8.841 0-16.035 7.192-16.035 16.034s7.194 16.034 16.035 16.034 16.035-7.192 16.035-16.034-7.194-16.034-16.035-16.034zM16 30.966c-8.252 0-14.965-6.714-14.965-14.966s6.713-14.966 14.965-14.966 14.965 6.714 14.965 14.966-6.713 14.966-14.965 14.966zM16.163 19.823c-2.789 0-5.477 1.179-7.374 3.235-0.2 0.217-0.187 0.555 0.031 0.755 0.216 0.2 0.554 0.188 0.755-0.030 1.695-1.838 4.096-2.892 6.587-2.892 2.529 0 4.956 1.081 6.656 2.967 0.105 0.116 0.251 0.176 0.397 0.176 0.128 0 0.256-0.045 0.358-0.138 0.219-0.197 0.237-0.535 0.039-0.755-1.903-2.109-4.618-3.318-7.449-3.318zM10.5 16.5c1.103 0 2-0.897 2-2s-0.897-2-2-2-2 0.897-2 2 0.897 2 2 2zM10.5 13.5c0.551 0 1 0.448 1 1s-0.449 1-1 1-1-0.448-1-1 0.449-1 1-1zM21.5 16.5c1.103 0 2-0.897 2-2s-0.897-2-2-2-2 0.897-2 2 0.897 2 2 2zM21.5 13.5c0.551 0 1 0.448 1 1s-0.449 1-1 1-1-0.448-1-1 0.449-1 1-1z"></path>
</symbol>
<symbol id="icon-hand-paper-o" viewBox="0 0 26 28">
<path d="M13.75 2c-0.969 0-1.75 0.781-1.75 1.75v10.25h-0.5v-8.25c0-0.969-0.781-1.75-1.75-1.75s-1.75 0.781-1.75 1.75v12.25l-2.406-3.203c-0.375-0.5-0.969-0.797-1.594-0.797-1.109 0-2 0.906-2 2 0 0.438 0.141 0.859 0.406 1.203l6 8c0.375 0.5 0.969 0.797 1.594 0.797h10.75c0.719 0 1.344-0.516 1.484-1.219l1.188-6.328c0.047-0.297 0.078-0.609 0.078-0.922v-7.781c0-0.969-0.781-1.75-1.75-1.75s-1.75 0.781-1.75 1.75v4.25h-0.5v-8.25c0-0.969-0.781-1.75-1.75-1.75s-1.75 0.781-1.75 1.75v8.25h-0.5v-10.25c0-0.969-0.781-1.75-1.75-1.75zM13.75 0c1.406 0 2.703 0.797 3.344 2.063 0.219-0.047 0.438-0.063 0.656-0.063 2.063 0 3.75 1.687 3.75 3.75v0.266c2.172-0.125 4 1.547 4 3.734v7.781c0 0.438-0.047 0.875-0.125 1.297l-1.188 6.312c-0.297 1.656-1.75 2.859-3.437 2.859h-10.75c-1.25 0-2.453-0.609-3.203-1.594l-6-8c-0.516-0.688-0.797-1.547-0.797-2.406 0-2.203 1.781-4 4-4 0.656 0 1.453 0.156 2 0.531v-6.781c0-2.063 1.687-3.75 3.75-3.75 0.219 0 0.438 0.016 0.656 0.063 0.641-1.266 1.937-2.063 3.344-2.063z"></path>
</symbol>
<symbol id="icon-chevron-with-circle-right" viewBox="0 0 20 20">
<path d="M11 10l-2.302-2.506c-0.196-0.198-0.196-0.519 0-0.718 0.196-0.197 0.515-0.197 0.71 0l2.807 2.864c0.196 0.199 0.196 0.52 0 0.717l-2.807 2.864c-0.195 0.199-0.514 0.198-0.71 0-0.196-0.197-0.196-0.518 0-0.717l2.302-2.504zM10 0.4c5.302 0 9.6 4.298 9.6 9.6 0 5.303-4.298 9.6-9.6 9.6s-9.6-4.297-9.6-9.6c0-5.302 4.298-9.6 9.6-9.6zM10 18.354c4.613 0 8.354-3.74 8.354-8.354s-3.741-8.354-8.354-8.354c-4.615 0-8.354 3.74-8.354 8.354s3.739 8.354 8.354 8.354z"></path>
</symbol>
</defs>
</svg>
